<?xml version="1.0" encoding="utf-8"?>
<!-- Generator: Adobe Illustrator 17.1.0, SVG Export Plug-In . SVG Version: 6.00 Build 0)  -->
<!DOCTYPE svg PUBLIC "-//W3C//DTD SVG 1.1//EN" "http://www.w3.org/Graphics/SVG/1.1/DTD/svg11.dtd">
<svg version="1.1" id="Layer_1" xmlns="http://www.w3.org/2000/svg" xmlns:xlink="http://www.w3.org/1999/xlink" x="0px" y="0px"
	 viewBox="0 0 500 500" enable-background="new 0 0 500 500" xml:space="preserve">
<g>
	<path fill="#FFFFFF" d="M500.8,501c-166.8,0-333.6,0-500.3,0c0-166.8,0-333.6,0-500.3c166.8,0,333.6,0,500.3,0
		C500.8,167.5,500.8,334.2,500.8,501z M308.6,206.8c48-35.8,51.6-104.2,13.1-145.6c-36.6-39.2-97.8-41.8-138-5.3
		c-19.5,17.7-30.2,40.1-31.5,66.4c-1.8,34.9,12.1,63,39.6,84.8c-1,0.4-1.7,0.7-2.4,1.1c-58.8,24.7-97.2,82-97.3,145.7
		c-0.1,32.7,0,65.3,0,98c0,0.8,0.1,1.6,0.1,2.3c105.7,0,211.2,0,316.8,0c0-0.9,0-1.5,0-2.2c0-33.2,0.2-66.3-0.1-99.5
		c-0.1-8.6-0.8-17.3-2.4-25.8c-9.6-50.7-37.5-88.2-82.7-112.9C318.7,211.4,313.6,209.2,308.6,206.8z"/>
	<path d="M308.6,206.8c5,2.4,10.1,4.5,15,7.2c45.2,24.6,73.1,62.2,82.7,112.9c1.6,8.5,2.3,17.2,2.4,25.8c0.3,33.2,0.1,66.3,0.1,99.5
		c0,0.7,0,1.3,0,2.2c-105.6,0-211.1,0-316.8,0c0-0.7-0.1-1.5-0.1-2.3c0-32.7-0.1-65.3,0-98c0.2-63.8,38.5-121.1,97.3-145.7
		c0.7-0.3,1.5-0.6,2.4-1.1c-27.5-21.8-41.3-49.9-39.6-84.8c1.3-26.3,12-48.6,31.5-66.4c40.2-36.6,101.4-33.9,138,5.3
		C360.2,102.6,356.6,171.1,308.6,206.8z M367.1,412.7c0.1-0.9,0.1-1.6,0.1-2.4c0-18.5,0.1-37,0-55.5c0-10.2-1.2-20.3-3.9-30.1
		c-15.8-58.2-71.4-94.7-131-85.5c-28.7,4.4-52.5,18-71.2,40.2c-17.1,20.2-26.5,43.8-27.2,70.3c-0.6,20.6-0.2,41.3-0.2,62
		c0,0.3,0.1,0.6,0.2,1.1C211.6,412.7,289.2,412.7,367.1,412.7z M306.2,128.2c-0.3-31.4-25.5-56.5-56.4-56.4
		c-31.3,0.2-56.5,25.7-56.2,56.9c0.4,30.9,25.9,56.1,56.5,55.7C281.3,184,306.5,158.8,306.2,128.2z"/>
	<path fill="#FFFFFF" d="M367.1,412.7c-77.9,0-155.5,0-233.2,0c-0.1-0.4-0.2-0.8-0.2-1.1c0-20.7-0.3-41.3,0.2-62
		c0.7-26.5,10.1-50.1,27.2-70.3c18.7-22.2,42.5-35.8,71.2-40.2c59.6-9.1,115.2,27.3,131,85.5c2.7,9.9,3.8,19.9,3.9,30.1
		c0.1,18.5,0,37,0,55.5C367.2,411.1,367.1,411.8,367.1,412.7z"/>
	<path fill="#FFFFFF" d="M306.2,128.2c0.3,30.6-24.9,55.9-56,56.2c-30.6,0.4-56.2-24.8-56.5-55.7c-0.4-31.1,24.9-56.7,56.2-56.9
		C280.7,71.6,305.9,96.8,306.2,128.2z"/>
</g>
</svg>
