<?xml version="1.0" encoding="utf-8"?>
<!-- Generator: Adobe Illustrator 17.1.0, SVG Export Plug-In . SVG Version: 6.00 Build 0)  -->
<!DOCTYPE svg PUBLIC "-//W3C//DTD SVG 1.1//EN" "http://www.w3.org/Graphics/SVG/1.1/DTD/svg11.dtd">
<svg version="1.1" id="Layer_1" xmlns="http://www.w3.org/2000/svg" xmlns:xlink="http://www.w3.org/1999/xlink" x="0px" y="0px"
	 viewBox="0 0 500 500" enable-background="new 0 0 500 500" xml:space="preserve">
<g>
	<g>
		<path d="M86.7,135.1c112,0,223.8,0,335.7,0c0,111.9,0,223.8,0,336c-111.9,0-223.7,0-335.7,0C86.7,359,86.7,247.2,86.7,135.1z
			 M275.1,282.8c35.4,0,70.5,0,105.6,0c0-35.4,0-70.7,0-106c-35.3,0-70.4,0-105.6,0C275.1,212.3,275.1,247.5,275.1,282.8z
			 M128.3,282.8c35.1,0,70.1,0,105.1,0c0-35.4,0-70.6,0-106c-35,0-70,0-105.1,0C128.3,212.2,128.3,247.4,128.3,282.8z M275.2,324.6
			c0,35,0,69.8,0,104.6c35.3,0,70.4,0,105.5,0c0-35,0-69.7,0-104.6C345.4,324.6,310.4,324.6,275.2,324.6z M128.3,324.6
			c0,0.9-0.1,1.7-0.1,2.4c0,33.2,0,66.5,0,99.7c0,2.1,0.7,2.6,2.7,2.6c33.4-0.1,66.8,0,100.2,0c0.7,0,1.5-0.1,2.3-0.1
			c0-34.9,0-69.7,0-104.6C198.4,324.6,163.5,324.6,128.3,324.6z"/>
		<path d="M254.6,93.1c3-5.5,5.9-10.8,8.9-16c3.6-6.5,7.3-12.9,10.8-19.4c1.2-2.3,2.1-4.7,3.1-7.1c9-22.6,32.1-36.9,55.6-34.5
			c25,2.5,44.6,20.3,49.1,44.7c5.8,30.9-15.8,60.5-46.9,64.1c-5.2,0.6-10.4,0-15.7,0c-9.5,0-19,0-28.5,0c-33.6,0-67.1,0-100.7,0
			c-5.5,0-11,0.6-16.4,0c-23.1-2.6-42.3-20.5-46.8-43.3c-6.1-30.8,14.4-60.2,45.3-65.1c25.5-4,50.4,10.8,59.8,35
			c2.7,6.9,6.7,13.3,10.2,19.9c3.7,6.9,7.7,13.8,11.5,20.7C254,92.4,254.2,92.6,254.6,93.1z M276,102c1.5,0,2.4,0,3.3,0
			c15.5,0,31,0.1,46.5-0.1c3.3,0,6.7-0.4,9.8-1.2c12.9-3.6,21-12,23.1-25.3c2-12.6-2.8-22.9-13.2-30.3c-14-9.8-34.9-5.4-42.8,8.9
			c-2,3.7-4.1,7.4-6.1,11.1c-4.4,7.9-8.8,15.8-13.1,23.7C281,93.1,278.6,97.3,276,102z M233,102c-3.5-6.3-6.7-12.2-10-18
			c-5.3-9.4-11.1-18.5-15.7-28.3c-4.6-9.8-18.8-18.8-34.1-14.9c-16.2,4.2-26.1,20-22.7,36.4c3.3,16.1,19,26.7,35.6,24
			c0.7-0.1,1.5-0.2,2.2-0.1c1.8,0.2,3.5,0.9,5.2,0.9C206.5,102,219.5,102,233,102z"/>
	</g>
</g>
</svg>
