<?xml version="1.0" encoding="utf-8"?>
<!-- Generator: Adobe Illustrator 17.1.0, SVG Export Plug-In . SVG Version: 6.00 Build 0)  -->
<!DOCTYPE svg PUBLIC "-//W3C//DTD SVG 1.1//EN" "http://www.w3.org/Graphics/SVG/1.1/DTD/svg11.dtd">
<svg version="1.1" id="Layer_1" xmlns="http://www.w3.org/2000/svg" xmlns:xlink="http://www.w3.org/1999/xlink" x="0px" y="0px"
	 viewBox="0 0 500 500" enable-background="new 0 0 500 500" xml:space="preserve">
<g>
	<g>
		<path d="M408.9,53.2c0,105.6,0,211.1,0,316.7c-105.6,0-211,0-316.7,0c0-105.5,0-211,0-316.7C197.7,53.2,303.2,53.2,408.9,53.2z
			 M367.3,94.8c-1.1-0.1-1.9-0.1-2.7-0.1c-76.1,0-152.2,0-228.2,0c-2,0-2.7,0.5-2.7,2.6c0.1,76.2,0.1,152.3,0,228.5
			c0,2.1,0.7,2.6,2.7,2.6c76.1,0,152.2,0,228.2,0c0.9,0,1.8-0.1,2.7-0.2C367.3,250.3,367.3,172.7,367.3,94.8z"/>
		<path d="M323.2,469.9c-21-0.3-41.3-4.5-61.1-10.8c-16.9-5.4-33.6-11.6-50.5-17.4c-9.6-3.3-19.3-5.5-29.5-6.3
			c-14.4-1.1-28.4,1.2-42,5.8c-10.9,3.7-21.8,7.7-32.7,11.7c-4.4,1.6-8.6,2.3-12.8-0.7c-3.4-2.5-4.4-6.2-4.6-10.1
			c-0.2-5.7-0.3-11.5,0-17.2c0.4-5.8,2-9.6,8.7-12c16.7-5.9,33.6-10.7,51.1-13.4c22.5-3.5,44.8-1.9,66.9,3.2
			c19.4,4.5,37.8,11.7,56.5,18.1c10.8,3.7,21.7,7.1,32.8,9.5c17.2,3.7,34.1,1.4,50.7-4.1c11.4-3.8,22.6-7.9,33.9-11.8
			c2.3-0.8,4.9-1.6,7.2-1.2c6.4,0.9,9.8,5.2,9.9,11.7c0.1,5.7,0.3,11.5,0,17.2c-0.3,6.1-2.1,9.7-8.8,12.1
			c-16.8,5.9-33.9,10.9-51.6,13.4C339.5,468.8,331.3,469.2,323.2,469.9z"/>
	</g>
</g>
</svg>
