<?xml version="1.0" encoding="utf-8"?>
<!-- Generator: Adobe Illustrator 17.1.0, SVG Export Plug-In . SVG Version: 6.00 Build 0)  -->
<!DOCTYPE svg PUBLIC "-//W3C//DTD SVG 1.1//EN" "http://www.w3.org/Graphics/SVG/1.1/DTD/svg11.dtd">
<svg version="1.1" id="Layer_1" xmlns="http://www.w3.org/2000/svg" xmlns:xlink="http://www.w3.org/1999/xlink" x="0px" y="0px"
	 viewBox="0 0 500 500" enable-background="new 0 0 500 500" xml:space="preserve">
<g>
	<g>
		<path d="M129.9,446.8c0-25.8,0-51.4,0-77.3c-26,0-51.8,0-77.8,0c0-105.5,0-210.9,0-316.4c105.3,0,210.6,0,316.2,0
			c0,25.6,0,51.3,0,77.3c26.1,0,52,0,78,0c0,105.6,0,210.9,0,316.3C341,446.8,235.7,446.8,129.9,446.8z M326.7,94.8
			c-1.1-0.1-1.9-0.1-2.7-0.1c-75.9,0-151.8,0-227.7,0c-2.1,0-2.7,0.5-2.7,2.6c0.1,76,0.1,152,0,228c0,2.1,0.7,2.6,2.7,2.6
			c75.9,0,151.8,0,227.7,0c0.9,0,1.7-0.1,2.7-0.2C326.7,249.9,326.7,172.5,326.7,94.8z M171.9,405.3c1.1,0,2.1,0,3.1,0
			c75.6,0,151.2,0,226.7,0.1c2.5,0,3.2-0.5,3.2-3.1c-0.1-38.8-0.1-77.7-0.1-116.5c0-36.8,0-73.7,0.1-110.5c0-2.6-0.7-3.2-3.2-3.1
			c-10.1,0.1-20.2,0.1-30.2,0.1c-0.9,0-1.8,0-3,0c0,65.9,0,131.5,0,197.4c-65.7,0-131.1,0-196.6,0
			C171.9,381.6,171.9,393.3,171.9,405.3z"/>
	</g>
</g>
</svg>
