<?xml version="1.0" encoding="utf-8"?>
<!-- Generator: Adobe Illustrator 17.1.0, SVG Export Plug-In . SVG Version: 6.00 Build 0)  -->
<!DOCTYPE svg PUBLIC "-//W3C//DTD SVG 1.1//EN" "http://www.w3.org/Graphics/SVG/1.1/DTD/svg11.dtd">
<svg version="1.1" id="Layer_1" xmlns="http://www.w3.org/2000/svg" xmlns:xlink="http://www.w3.org/1999/xlink" x="0px" y="0px"
	 viewBox="0 0 500 500" enable-background="new 0 0 500 500" xml:space="preserve">
<g>
	<g>
		<path d="M250.8,46.5c112.6,0.1,203.8,91.6,203.7,204.1c-0.1,113.1-91.6,204.1-204.9,203.9C137,454.2,46.3,362.6,46.5,249.3
			C46.7,137.4,138.5,46.4,250.8,46.5z M387,163c-8-15.5-37.8-44.8-50.8-50c-5.1,9-10.2,17.9-15.4,27c-3.9-2.2-7.4-4.3-11.1-6.4
			c5.2-9.2,10.3-18.2,15.5-27.3c-21.4-11-43.8-16.9-67.8-17.9c0,10.8,0,21.2,0,31.5c-4.7,0-9.2,0-13.9,0c0-10.5,0-20.9,0-31.5
			c-24.8,1.2-47.9,7.4-69.7,19.1c5.3,9.1,10.5,17.9,15.8,27c-3.7,2.2-7.3,4.3-11.1,6.5c-5.3-9.1-10.5-17.9-15.7-26.7
			c-13.6,6.2-43.8,36.7-49.8,50.6c9,5.1,18,10.2,27,15.4c-2.2,3.8-4.2,7.4-6.4,11.1c-9.2-5.2-18.1-10.3-27.1-15.4
			c-9,13.1-20.1,55.3-17.7,67.7c10.3,0,20.7,0,31.1,0c0,4.7,0,9.2,0,13.9c-10.5,0-20.9,0-31.5,0c1.1,24.7,7.3,47.6,18.8,69.4
			c9.1-5.3,18.1-10.6,27.2-15.9c2.2,3.7,4.3,7.4,6.5,11.1c-9.2,5.4-18.1,10.6-27.2,15.9c13.4,20.7,30.4,37.4,51.1,50.4
			c5.2-9.1,10.3-18,15.3-26.9c3.8,2.2,7.4,4.3,11.1,6.4c-5.2,9.1-10.2,17.9-15.3,26.9c21.2,10.9,43.5,16.8,67.5,17.8
			c0-10.7,0-21.1,0-31.5c4.8,0,9.3,0,14.1,0c0,10.5,0,20.9,0,31.5c24.6-1.2,47.4-7.3,69-18.7c-5.3-9-10.4-17.9-15.7-26.8
			c3.7-2.2,7.3-4.3,11.1-6.5c5.3,9,10.5,17.8,15.7,26.8c20.7-13.4,37.5-30.4,50.7-51.3c-9.1-5.2-18-10.2-26.9-15.3
			c2.2-3.8,4.2-7.4,6.4-11.1c9.1,5.2,17.9,10.2,26.9,15.3c10.9-21.3,16.8-43.6,17.8-67.5c-10.7,0-21,0-31.5,0c0-4.8,0-9.3,0-14.1
			c10.5,0,20.9,0,31.5,0c-1.1-24.7-7.4-47.7-18.9-69.4c-9,5.3-17.7,10.4-26.6,15.5c-2.2-3.7-4.3-7.3-6.5-11.1
			C369.6,173.2,378.3,168.1,387,163z"/>
		<path d="M261,207.3c0,15.9,0,31.8,0,47.7c0,2.8-1.2,4.5-3.4,5.9c-16.1,9.4-32.2,18.8-48.3,28.1c-1.7,1-3.6,1.9-5.1,3.1
			c-6.1,4.6-12.8,0-14.6-6.1c-1.6-5.3-0.3-8.4,4.5-11.3c14.5-8.6,29.1-17.2,43.7-25.7c1.6-0.9,2.3-1.9,2.3-3.9
			c-0.1-27.9-0.1-55.8-0.1-83.7c0-6.1,2.2-8.7,8.4-9.3c2.3-0.2,4.7,0,6.9,0.6c4.2,1.1,5.6,3.2,5.6,7.6C261,176,261,191.6,261,207.3z
			"/>
	</g>
</g>
</svg>
